<svg width="18" height="18" viewBox="0 0 18 18" fill="none" xmlns="http://www.w3.org/2000/svg">
    <path fill-rule="evenodd" clip-rule="evenodd" d="M5.24843 8.79995L5.94502 5.31698C6.23627 3.86073 7.51491 2.8125 9 2.8125C10.4851 2.8125 11.7637 3.86073 12.055 5.31698L12.7516 8.79995C12.9595 9.83965 13.4706 10.7945 14.2203 11.5443L14.4383 11.7623C14.5578 11.8818 14.625 12.044 14.625 12.213C14.625 12.5098 14.4201 12.7673 14.1309 12.8341L13.2071 13.0473C10.4387 13.6861 7.56127 13.6861 4.79294 13.0473L3.86908 12.8341C3.57987 12.7673 3.375 12.5098 3.375 12.213C3.375 12.044 3.44215 11.8818 3.56169 11.7623L3.77971 11.5443C4.52945 10.7945 5.04049 9.83965 5.24843 8.79995ZM3.5937 8.469L4.29029 4.98604C4.7393 2.74101 6.71051 1.125 9 1.125C11.2895 1.125 13.2607 2.74101 13.7097 4.98604L14.4063 8.469C14.5489 9.18202 14.8994 9.83687 15.4135 10.351L15.6316 10.5691C16.0676 11.0051 16.3125 11.5964 16.3125 12.213C16.3125 13.2956 15.5653 14.2349 14.5104 14.4784L13.5865 14.6916C12.798 14.8735 12.0014 15.008 11.2009 15.0948C10.9849 16.112 10.0815 16.8751 9 16.8751C7.91846 16.8751 7.01515 16.112 6.79911 15.0948C5.99861 15.008 5.20199 14.8735 4.41349 14.6916L3.48963 14.4784C2.43475 14.2349 1.6875 13.2956 1.6875 12.213C1.6875 11.5964 1.93245 11.0051 2.36845 10.5691L2.58647 10.351C3.10063 9.83687 3.4511 9.18202 3.5937 8.469Z" fill="white" fill-opacity="0.85098"/>
</svg>
