<svg width="18" height="18" viewBox="0 0 18 18" fill="none" xmlns="http://www.w3.org/2000/svg">
<path fill-rule="evenodd" clip-rule="evenodd" d="M15.1305 9.84375C14.7189 12.8619 12.1311 15.1875 9 15.1875C5.58274 15.1875 2.8125 12.4173 2.8125 9C2.8125 5.86894 5.13814 3.28107 8.15625 2.86955V9C8.15625 9.46599 8.53401 9.84375 9 9.84375H15.1305ZM15.1305 8.15625H9.84375V2.86955C12.586 3.24345 14.7565 5.41402 15.1305 8.15625ZM16.875 9C16.875 13.3492 13.3492 16.875 9 16.875C4.65076 16.875 1.125 13.3492 1.125 9C1.125 4.65076 4.65076 1.125 9 1.125C13.3492 1.125 16.875 4.65076 16.875 9Z" fill="#647A8D"/>
</svg>
