<svg width="18" height="18" viewBox="0 0 18 18" fill="none" xmlns="http://www.w3.org/2000/svg">
<path fill-rule="evenodd" clip-rule="evenodd" d="M5.44861 12.3118L5.2297 14.9387C5.21854 15.0727 5.32422 15.1875 5.45859 15.1875C5.51484 15.1875 5.56914 15.1669 5.61118 15.1295L8.0968 12.92L8.75985 12.9348C8.8394 12.9366 8.91946 12.9375 9 12.9375C10.9067 12.9375 12.4726 12.442 13.5229 11.613C14.5231 10.8234 15.1875 9.63387 15.1875 7.875C15.1875 6.11613 14.5231 4.92663 13.5229 4.13702C12.4726 3.30796 10.9067 2.8125 9 2.8125C7.09332 2.8125 5.52735 3.30796 4.47714 4.13702C3.47691 4.92663 2.8125 6.11613 2.8125 7.875C2.8125 9.72866 3.55042 10.9602 4.66594 11.7545L5.44861 12.3118ZM6.73229 16.3907L8.72222 14.6219C8.81442 14.624 8.90702 14.625 9 14.625C13.3492 14.625 16.875 12.375 16.875 7.875C16.875 3.375 13.3492 1.125 9 1.125C4.65076 1.125 1.125 3.375 1.125 7.875C1.125 10.2566 2.11258 12.008 3.68715 13.1292L3.54803 14.7986C3.45489 15.9164 4.33696 16.875 5.45859 16.875C5.92813 16.875 6.38135 16.7027 6.73229 16.3907Z" fill="#647A8D"/>
</svg>
