<svg width="18" height="18" viewBox="0 0 18 18" fill="none" xmlns="http://www.w3.org/2000/svg">
<path fill-rule="evenodd" clip-rule="evenodd" d="M7.69076 3.6024L1.95729 6.05961C1.79362 6.12975 1.6875 6.29068 1.6875 6.46875C1.6875 6.64681 1.79362 6.80775 1.95729 6.87789L7.69076 9.3351C8.04085 9.48513 8.41777 9.5625 8.79866 9.5625H9.20134C9.58223 9.5625 9.95915 9.48513 10.3092 9.3351L16.0427 6.87789C16.2064 6.80775 16.3125 6.64682 16.3125 6.46875C16.3125 6.29069 16.2064 6.12975 16.0427 6.05961L10.3092 3.6024C9.95915 3.45237 9.58223 3.375 9.20134 3.375H8.79866C8.41777 3.375 8.04085 3.45237 7.69076 3.6024ZM1.6875 8.59821L3.37493 9.3214V12.9531C3.37493 13.8053 3.85645 14.5844 4.61872 14.9656L5.52587 15.4191C7.71602 16.5142 10.2909 16.5281 12.4928 15.4569L13.5153 14.9594C14.2895 14.5828 14.7809 13.7972 14.7809 12.9362V9.2546L16.7075 8.42895C17.4916 8.09289 18 7.32186 18 6.46875C18 5.61564 17.4916 4.84461 16.7075 4.50855L10.974 2.05135C10.4138 1.81128 9.81076 1.6875 9.20134 1.6875H8.79866C8.18924 1.6875 7.58617 1.81129 7.02602 2.05135L1.29255 4.50855C0.508413 4.84461 0 5.61564 0 6.46875V11.5312C0 11.9972 0.37776 12.375 0.84375 12.375C1.30974 12.375 1.6875 11.9972 1.6875 11.5312V8.59821ZM5.06243 12.9531V10.0446L7.02602 10.8862C7.58617 11.1262 8.18924 11.25 8.79866 11.25H9.20134C9.81076 11.25 10.4138 11.1262 10.974 10.8862L13.0934 9.97782V12.9362C13.0934 13.1515 12.9706 13.3478 12.777 13.442L11.7546 13.9394C10.0245 14.7811 8.00137 14.7702 6.28053 13.9098L5.37338 13.4562C5.18281 13.3609 5.06243 13.1662 5.06243 12.9531Z" fill="#647A8D"/>
</svg>
