<svg width="18" height="18" viewBox="0 0 18 18" fill="none" xmlns="http://www.w3.org/2000/svg">
    <path fill-rule="evenodd" clip-rule="evenodd" d="M5.94037 2.49713C6.26988 2.82663 6.26988 3.36087 5.94037 3.69037L3.69037 5.94037C3.36087 6.26988 2.82663 6.26988 2.49713 5.94037L1.37213 4.81537C1.04262 4.48587 1.04262 3.95163 1.37213 3.62213C1.70163 3.29262 2.23587 3.29262 2.56537 3.62213L3.09375 4.15051L4.74713 2.49713C5.07663 2.16762 5.61087 2.16762 5.94037 2.49713ZM7.3125 4.21875C7.3125 4.68474 7.69026 5.0625 8.15625 5.0625H16.0312C16.4972 5.0625 16.875 4.68474 16.875 4.21875C16.875 3.75276 16.4972 3.375 16.0312 3.375H8.15625C7.69026 3.375 7.3125 3.75276 7.3125 4.21875ZM8.15625 8.15625C7.69026 8.15625 7.3125 8.53401 7.3125 9C7.3125 9.46599 7.69026 9.84375 8.15625 9.84375H16.0312C16.4972 9.84375 16.875 9.46599 16.875 9C16.875 8.53401 16.4972 8.15625 16.0312 8.15625H8.15625ZM5.94037 8.19036C6.26988 7.86086 6.26988 7.32662 5.94037 6.99712C5.61087 6.66761 5.07663 6.66761 4.74713 6.99712L3.09375 8.6505L2.56537 8.12212C2.23587 7.79262 1.70163 7.79262 1.37213 8.12212C1.04262 8.45162 1.04262 8.98586 1.37213 9.31536L2.49713 10.4404C2.82663 10.7699 3.36087 10.7699 3.69037 10.4404L5.94037 8.19036ZM5.94037 11.7784C6.26988 12.1079 6.26988 12.6421 5.94037 12.9716L3.69037 15.2216C3.36087 15.5511 2.82663 15.5511 2.49713 15.2216L1.37213 14.0966C1.04262 13.7671 1.04262 13.2329 1.37213 12.9034C1.70163 12.5739 2.23587 12.5739 2.56537 12.9034L3.09375 13.4318L4.74713 11.7784C5.07663 11.4489 5.61087 11.4489 5.94037 11.7784ZM8.15625 12.9375C7.69026 12.9375 7.3125 13.3153 7.3125 13.7812C7.3125 14.2472 7.69026 14.625 8.15625 14.625H16.0312C16.4972 14.625 16.875 14.2472 16.875 13.7812C16.875 13.3153 16.4972 12.9375 16.0312 12.9375H8.15625Z" fill="white" fill-opacity="0.85098"/>
</svg>
