<svg width="18" height="18" viewBox="0 0 18 18" fill="none" xmlns="http://www.w3.org/2000/svg">
    <path fill-rule="evenodd" clip-rule="evenodd" d="M10.6875 3.375C10.6875 4.30698 9.93198 5.0625 9 5.0625C8.06802 5.0625 7.3125 4.30698 7.3125 3.375C7.3125 2.44302 8.06802 1.6875 9 1.6875C9.93198 1.6875 10.6875 2.44302 10.6875 3.375ZM3.375 10.6875C4.30698 10.6875 5.0625 9.93198 5.0625 9C5.0625 8.06802 4.30698 7.3125 3.375 7.3125C2.44302 7.3125 1.6875 8.06802 1.6875 9C1.6875 9.93198 2.44302 10.6875 3.375 10.6875ZM10.6875 9C10.6875 9.93198 9.93198 10.6875 9 10.6875C8.06802 10.6875 7.3125 9.93198 7.3125 9C7.3125 8.06802 8.06802 7.3125 9 7.3125C9.93198 7.3125 10.6875 8.06802 10.6875 9ZM16.3125 9C16.3125 9.93198 15.557 10.6875 14.625 10.6875C13.693 10.6875 12.9375 9.93198 12.9375 9C12.9375 8.06802 13.693 7.3125 14.625 7.3125C15.557 7.3125 16.3125 8.06802 16.3125 9ZM14.625 5.0625C15.557 5.0625 16.3125 4.30698 16.3125 3.375C16.3125 2.44302 15.557 1.6875 14.625 1.6875C13.693 1.6875 12.9375 2.44302 12.9375 3.375C12.9375 4.30698 13.693 5.0625 14.625 5.0625ZM5.0625 3.375C5.0625 4.30698 4.30698 5.0625 3.375 5.0625C2.44302 5.0625 1.6875 4.30698 1.6875 3.375C1.6875 2.44302 2.44302 1.6875 3.375 1.6875C4.30698 1.6875 5.0625 2.44302 5.0625 3.375ZM9 16.3125C9.93198 16.3125 10.6875 15.557 10.6875 14.625C10.6875 13.693 9.93198 12.9375 9 12.9375C8.06802 12.9375 7.3125 13.693 7.3125 14.625C7.3125 15.557 8.06802 16.3125 9 16.3125ZM16.3125 14.625C16.3125 15.557 15.557 16.3125 14.625 16.3125C13.693 16.3125 12.9375 15.557 12.9375 14.625C12.9375 13.693 13.693 12.9375 14.625 12.9375C15.557 12.9375 16.3125 13.693 16.3125 14.625ZM3.375 16.3125C4.30698 16.3125 5.0625 15.557 5.0625 14.625C5.0625 13.693 4.30698 12.9375 3.375 12.9375C2.44302 12.9375 1.6875 13.693 1.6875 14.625C1.6875 15.557 2.44302 16.3125 3.375 16.3125Z" fill="white" fill-opacity="0.85098"/>
</svg>
