<svg width="18" height="18" viewBox="0 0 18 18" fill="none" xmlns="http://www.w3.org/2000/svg">
    <path fill-rule="evenodd" clip-rule="evenodd" d="M8.09844 2.25012H9.90127C10.0247 2.25012 10.1248 2.35021 10.1248 2.4737C10.1248 4.50824 12.3273 5.77995 14.0893 4.76263C14.1963 4.70091 14.333 4.73754 14.3947 4.84444L15.2961 6.40581C15.3579 6.51274 15.3212 6.64948 15.2143 6.71121C13.4523 7.72852 13.4523 10.2718 15.2143 11.2891C15.3212 11.3508 15.3579 11.4876 15.2961 11.5945L14.3947 13.1559C14.333 13.2628 14.1963 13.2994 14.0893 13.2377C12.3273 12.2204 10.1248 13.492 10.1248 15.5266C10.1248 15.65 10.0247 15.7501 9.9013 15.7501H8.09842C7.97494 15.7501 7.87483 15.65 7.87483 15.5265C7.87483 13.4919 5.67225 12.2203 3.91026 13.2376C3.80328 13.2994 3.66651 13.2627 3.60477 13.1558L2.70337 11.5945C2.64163 11.4876 2.67827 11.3508 2.7852 11.2891C4.54722 10.2718 4.54722 7.72852 2.7852 6.71121C2.67827 6.64947 2.64163 6.51274 2.70337 6.40581L3.60477 4.84453C3.66652 4.73758 3.80329 4.70093 3.91025 4.76268C5.67227 5.77999 7.87483 4.50837 7.87483 2.47373C7.87483 2.35024 7.97495 2.25012 8.09844 2.25012ZM6.18734 2.47373C6.18734 1.41826 7.04297 0.562622 8.09844 0.562622H9.90127C10.9567 0.562622 11.8123 1.41825 11.8123 2.4737C11.8123 3.20925 12.6086 3.66899 13.2456 3.30121C14.1596 2.7735 15.3284 3.08667 15.8561 4.00069L16.7576 5.56206C17.2853 6.47611 16.9721 7.6449 16.0581 8.17263C15.421 8.54042 15.421 9.45988 16.0581 9.82767C16.9721 10.3554 17.2853 11.5242 16.7576 12.4382L15.8561 13.9996C15.3284 14.9136 14.1596 15.2268 13.2456 14.6991C12.6086 14.3313 11.8123 14.791 11.8123 15.5266C11.8123 16.582 10.9567 17.4376 9.9013 17.4376H8.09842C7.04296 17.4376 6.18734 16.582 6.18734 15.5265C6.18734 14.791 5.39104 14.3312 4.75401 14.699C3.83993 15.2268 2.67109 14.9136 2.14335 13.9995L1.24195 12.4382C0.714222 11.5242 1.0274 10.3554 1.94145 9.82767C2.57847 9.45988 2.57847 8.54041 1.94145 8.17263C1.0274 7.6449 0.714223 6.47611 1.24195 5.56206L2.14335 4.00078C2.6711 3.08671 3.83992 2.77352 4.754 3.30127C5.39104 3.66906 6.18734 3.20932 6.18734 2.47373ZM10.6873 9.00012C10.6873 9.9321 9.93179 10.6876 8.99981 10.6876C8.06783 10.6876 7.31231 9.9321 7.31231 9.00012C7.31231 8.06814 8.06783 7.31262 8.99981 7.31262C9.93179 7.31262 10.6873 8.06814 10.6873 9.00012ZM12.3748 9.00012C12.3748 10.8641 10.8638 12.3751 8.99981 12.3751C7.13585 12.3751 5.62481 10.8641 5.62481 9.00012C5.62481 7.13616 7.13585 5.62512 8.99981 5.62512C10.8638 5.62512 12.3748 7.13616 12.3748 9.00012Z" fill="white" fill-opacity="0.85098"/>
</svg>
