<svg width="18" height="18" viewBox="0 0 18 18" fill="none" xmlns="http://www.w3.org/2000/svg">
<path fill-rule="evenodd" clip-rule="evenodd" d="M10.3436 5.62419L10.7384 6.60731L11.7954 6.67899L15.3926 6.9229L12.6258 9.23463L11.8128 9.9139L12.0712 10.9413L12.9509 14.4379L9.89728 12.5208L9.00002 11.9575L8.10276 12.5208L5.04917 14.4379L5.9288 10.9413L6.18727 9.9139L5.37426 9.23463L2.6074 6.9229L6.20464 6.67899L7.26164 6.60731L7.65644 5.62419L9.00002 2.27839L10.3436 5.62419ZM1.65472 5.29612L6.09048 4.99535L7.74726 0.869629C8.20073 -0.259605 9.79932 -0.259602 10.2528 0.869632L11.9096 4.99535L16.3453 5.29612C17.5594 5.37844 18.0534 6.89879 17.1196 7.67902L13.7078 10.5296L14.7924 14.8412C15.0893 16.0213 13.796 16.961 12.7654 16.3139L9.00002 13.95L5.23462 16.3139C4.20401 16.961 2.91073 16.0213 3.20761 14.8412L4.29229 10.5296L0.880469 7.67901C-0.0533665 6.89879 0.440627 5.37844 1.65472 5.29612Z" fill="#647A8D"/>
</svg>
