<svg width="16" height="16" viewBox="0 0 16 16" fill="none" xmlns="http://www.w3.org/2000/svg">
    <path fill-rule="evenodd" clip-rule="evenodd" d="M7.52941 15.5294C5.53249 15.5294 3.61735 14.7361 2.20531 13.3241C0.793275 11.9121 0 9.99692 0 8C0 6.00308 0.793275 4.08794 2.20531 2.6759C3.61735 1.26386 5.53249 0.470589 7.52941 0.470589C9.52634 0.470589 11.4415 1.26386 12.8535 2.6759C14.2655 4.08794 15.0588 6.00308 15.0588 8C15.0588 9.99692 14.2655 11.9121 12.8535 13.3241C11.4415 14.7361 9.52634 15.5294 7.52941 15.5294ZM7.52941 13.6471C9.02711 13.6471 10.4635 13.0521 11.5225 11.9931C12.5815 10.934 13.1765 9.49769 13.1765 8C13.1765 6.50231 12.5815 5.06596 11.5225 4.00693C10.4635 2.9479 9.02711 2.35294 7.52941 2.35294C6.03172 2.35294 4.59537 2.9479 3.53634 4.00693C2.47731 5.06596 1.88235 6.50231 1.88235 8C1.88235 9.49769 2.47731 10.934 3.53634 11.9931C4.59537 13.0521 6.03172 13.6471 7.52941 13.6471ZM10.6889 10.1308C10.8175 9.91689 10.8557 9.66068 10.7954 9.41853C10.735 9.17638 10.5809 8.96811 10.3671 8.83953L8.47059 7.70259V5.17647C8.47059 4.92686 8.37143 4.68746 8.19492 4.51096C8.01842 4.33445 7.77903 4.23529 7.52941 4.23529C7.2798 4.23529 7.0404 4.33445 6.8639 4.51096C6.6874 4.68746 6.58824 4.92686 6.58824 5.17647V8.23529C6.58836 8.39779 6.63056 8.55748 6.71072 8.69883C6.79087 8.84017 6.90626 8.95836 7.04565 9.04188L9.39859 10.4536C9.61255 10.5818 9.86862 10.6197 10.1106 10.5592C10.3525 10.4987 10.5605 10.3446 10.6889 10.1308Z" fill="white" fill-opacity="0.85098"/>
</svg>
